# xmcd
#
# Track frame offsets: 
#        150
#        14503
#        28484
#        42985
#        56762
#        70819
#        85401
#        95682
#        109737
#        123990
#        133635
#        146317
#        158869
#        171054
#
# Disc length: 2379 seconds
#
# Revision: 0
# Processed by: cddbd v1.5.2PL0 Copyright (c) Steve Scherf et al.
# Submitted via: ExactAudioCopy v0.95b2
#
DISCID=c509490e
DTITLE=Percy Mayfield - Specialty Profiles: Percy Mayfield
DYEAR=2006
DGENRE=R&B
TTITLE0=Please Send Me Someone To Love Me
TTITLE1=Strange Things Happening
TTITLE2=Lost Love
TTITLE3=What A Fool I Was
TTITLE4=Cry Baby
TTITLE5=Prayin' For Your Return
TTITLE6=Louisiana
TTITLE7=The Big Question
TTITLE8=The River's Invitation
TTITLE9=Loose Lips
TTITLE10=Sugar Mama-Peachy Papa
TTITLE11=Memory Pain
TTITLE12=Nightless Lover
TTITLE13=Hit The Road, Jack
EXTD=
EXTT0=
EXTT1=
EXTT2=
EXTT3=
EXTT4=
EXTT5=
EXTT6=
EXTT7=
EXTT8=
EXTT9=
EXTT10=
EXTT11=
EXTT12=
EXTT13=
PLAYORDER=
